<?xml version="1.0" encoding="UTF-8"?>
<svg width="150" height="150" viewBox="0 0 150 150" fill="none" xmlns="http://www.w3.org/2000/svg">
    <!-- Serpiente azul -->
    <path d="M75 15C60 15 45 25 45 40V60H65V65H25C10 65 5 80 5 95C5 110 15 125 30 125H40V105C40 90 55 75 70 75H100C115 75 120 65 120 50V40C120 25 105 15 75 15Z" fill="#306998"/>
    <!-- Serpiente amarilla -->
    <path d="M75 135C90 135 105 125 105 110V90H85V85H125C140 85 145 70 145 55C145 40 135 25 120 25H110V45C110 60 95 75 80 75H50C35 75 30 85 30 100V110C30 125 45 135 75 135Z" fill="#FFD43B"/>
    <!-- Ojos -->
    <circle cx="60" cy="40" r="5" fill="white"/>
    <circle cx="90" cy="110" r="5" fill="white"/>
</svg>
