<?xml version="1.0" encoding="UTF-8"?>
<svg width="150" height="150" viewBox="0 0 150 150" fill="none" xmlns="http://www.w3.org/2000/svg">
    <path d="M30 45C30 34 50 25 75 25C100 25 120 34 120 45V105C120 116 100 125 75 125C50 125 30 116 30 105V45Z" fill="#A91D22"/>
    <path d="M120 45C120 56 100 65 75 65C50 65 30 56 30 45C30 34 50 25 75 25C100 25 120 34 120 45Z" fill="#B31B1B"/>
    <path d="M120 65C120 76 100 85 75 85C50 85 30 76 30 65" stroke="#A91D22" stroke-width="2"/>
    <path d="M120 85C120 96 100 105 75 105C50 105 30 96 30 85" stroke="#A91D22" stroke-width="2"/>
</svg>
